# xmcd CD database file
#
# Track frame offsets:
#	150
#	18976
#	45556
#	57581
#	80632
#	94017
#	111643
#	129611
#	144820
#	164967
#	181313
#	218484
#
# Disc length: 3247 seconds
#
# Revision: 0
# Processed by: cddbd v1.5.1PL2 Copyright (c) Steve Scherf et al.
# Submitted via: CDex 1.51
#
DISCID=ab0cad0c
DTITLE='Sir' Oliver Mally and Raphael Wressnig - Triple Trouble
DYEAR=1900
DGENRE=Blues
TTITLE0=See me in the morning
TTITLE1=Standby lover
TTITLE2=Can't let go
TTITLE3=Silver train
TTITLE4=I'll be forever leaving you
TTITLE5=You took me by surprise
TTITLE6=Down the road I'm goin'
TTITLE7=Loretta
TTITLE8=C'mon and be my pet
TTITLE9=Perfect day
TTITLE10=Get behind the mule
TTITLE11=Rain
EXTD=
EXTT0=
EXTT1=
EXTT2=
EXTT3=
EXTT4=
EXTT5=
EXTT6=
EXTT7=
EXTT8=
EXTT9=
EXTT10=
EXTT11=
PLAYORDER=
